<svg id="Layer_1" data-name="Layer 1" xmlns="http://www.w3.org/2000/svg" viewBox="0 0 741.53 384.75"><defs><style>.cls-1{fill:#fff;}</style></defs><title>logo-white</title><path class="cls-1" d="M741.23,182.35c-1.25-8.35-7.11-17.18-13.19-23-7.76-7.41-19.82-9.28-30.17-9.25A75.52,75.52,0,0,0,668.53,156c-6.82,3-17.23,7.73-24.53,11.73-5.27,2.89-11.3,6.38-17.88,10.3-1.6-1.29-2.51-2.07-2.5-2.05-27.16-20.17-31.42-35.42-31.42-35.47l.53-1q11.09-15,22.8-28.61a155,155,0,0,1,17.89-17.56,15.3,15.3,0,0,0,4.69-6.89,21.14,21.14,0,0,0,1.11-8.29,19.59,19.59,0,0,0-1.15-5.48,13.24,13.24,0,0,0-2.61-4.44,9.65,9.65,0,0,0-9.24-3,18.19,18.19,0,0,0-5,1.8,26.86,26.86,0,0,0-5.77,4.19,193.92,193.92,0,0,0-16.53,16.74c-13.16,14.94-18.77,23.8-20.56,25.92L556.51,77.11a4.17,4.17,0,0,0-3-2.1,9,9,0,0,0-4.38,0,19.35,19.35,0,0,0-6.56,3,39.49,39.49,0,0,0-6.23,5.12A28.82,28.82,0,0,0,531.79,89a9.73,9.73,0,0,0-1.59,5.32,4.24,4.24,0,0,0,.35,1.23c4,9.29,9.83,20.12,17.56,32.58,4.93,8,8,14.44,9.17,19.24.27,1.07-2.73,5.09-3.3,6.13,0,0-7.12,9.3-13.86,14.07a69.05,69.05,0,0,1-6.35,4c.13-.57.29-1.15.41-1.72a72.11,72.11,0,0,0,1.67-15.21c0-6.78.85-13.48.1-18.85-4.72-33.12-25.42-36.71-25.42-36.69-4-.59-11.72-.34-14.7.8a71.2,71.2,0,0,0-13.36,6.27q-35,6-70,12.71,1.26-16.45,2.82-27.49c1-7.36,1.8-13.46,2.3-18.29s1.09-9,1.77-12.46,1.14-6.26,1.42-8.35.53-3.61.71-4.57a15.83,15.83,0,0,0,.25-2.54q5.58-1.69,10.78-3.1c3-.86,6.16-1.69,9.4-2.52s6-1.45,8.37-1.9q11.81-2.27,23.29-4.08t22.21-2.92q10.73-1.11,20.61-2.06c6.59-.63,12.71-1.19,18.41-1.69l1.22-.11c.39,0,.68-.07.89-.1a11.77,11.77,0,0,0,5.32-2.28,14.34,14.34,0,0,0,3.8-4.25A21,21,0,0,0,548.14,15a20.13,20.13,0,0,0,.71-5.07,9.4,9.4,0,0,0-2.52-6.42c-1.67-1.87-4.69-3-9.07-3.48q-22.95,1.85-44.48,4t-41,5.93a357,357,0,0,0-53.69,14.59q-24.3,8.83-41.69,20.64t-27,26.59a58.86,58.86,0,0,0-9.63,32.79,12.22,12.22,0,0,0,.45,3.39,4.19,4.19,0,0,0,2.42,2.58,14.08,14.08,0,0,0,6.11.94A69,69,0,0,0,340.22,110a23.79,23.79,0,0,0,8.33-3,13.85,13.85,0,0,0,4.13-3.83,7.61,7.61,0,0,0,1.4-3.42c.09-1,.13-1.55.14-1.72a26.08,26.08,0,0,1,2.58-10.67,45.23,45.23,0,0,1,8.07-11.64,87.5,87.5,0,0,1,13.76-11.84,126.64,126.64,0,0,1,19.62-11.2q-1.53,8.2-2.69,15.3T393.1,83.11q-1.29,8-3.11,18c-1.22,6.69-2.71,15.64-4.78,25.59l-25.72,8.12s-9.19,7.31-1.15,18.29c3.2,4.36,17.74-3.12,23.08-4.12,0,0-2.59,55-62.22,95.69,2.07-11.78,4.11-23,6.1-33.49q1.57-7.92,4.07-20.93t3.9-20.24l2.49-12.89c.73-3.79,1.31-6.79,1.76-9a11.22,11.22,0,0,0,.42-2.64c0-2.37-.85-3.95-2.64-4.73a11.53,11.53,0,0,0-6.69-.46,29,29,0,0,0-7.12,2.36,35.11,35.11,0,0,0-7.29,4.63,34.39,34.39,0,0,0-6.16,6.49,21.74,21.74,0,0,0-3.73,7.94q-5.51,23.69-11,47.3a74.3,74.3,0,0,1-2.4,10.18,79,79,0,0,1-4.76,12.13,48.7,48.7,0,0,1-6.84,10.49,14.47,14.47,0,0,1-8.71,5.26,7.26,7.26,0,0,1-4.87-.65,7.9,7.9,0,0,1-3-3.2,14.4,14.4,0,0,1-1.54-4.9,37.25,37.25,0,0,1-.36-5.87,71.82,71.82,0,0,1,1.74-13.63q1.63-7.74,4.45-21t4.48-21.2a87.28,87.28,0,0,1,4.06-13.92,22,22,0,0,0,1.13-3.58,16.16,16.16,0,0,0,.36-3c0-3-1-5-3.13-6.08a12.39,12.39,0,0,0-7.7-.84,28,28,0,0,0-10.88,4.64,25.61,25.61,0,0,0-8.63,9.66q-4.11,8.27-7.32,16.17a113.74,113.74,0,0,0-5.67,21.13q-2.46,13.2-4.13,22.18a111,111,0,0,0-1.74,16.35c-1.38,1-2.72,2.08-4.15,3.1-2.56,1.82-5,3.47-7.45,4.93a65,65,0,0,1-6.85,3.67,22.23,22.23,0,0,1-5.72,1.83,2.65,2.65,0,0,1-2.2-1.07,12.93,12.93,0,0,1-2.19-3.44,26.58,26.58,0,0,1-1.74-5.07,24.63,24.63,0,0,1-.72-6v-1.7c.26-1.66.61-3.36,1-5.13s.86-3.42,1.29-5,.88-3,1.35-4.39a31.57,31.57,0,0,1,1.36-3.36q5.94-11.84,13-24.41t14-25.61q6.94-13,13.36-26.19t11.31-26.08a196.67,196.67,0,0,0,7.76-25.33A106.45,106.45,0,0,0,264,66.25a43.12,43.12,0,0,0-.9-8.9A19.15,19.15,0,0,0,260,50a12.41,12.41,0,0,0-6.1-4.48q-3.87-1.4-9.84-.26A39.44,39.44,0,0,0,228,52.68a83.68,83.68,0,0,0-15.21,14.84A157.6,157.6,0,0,0,198.88,88a250.39,250.39,0,0,0-12.28,24.22Q181,125,175.33,145.43l-5.62,20.45S168.47,172.6,166,186c-1.59,8.62-2.66,16.06-3.22,22.37a50.89,50.89,0,0,0-11.29-8.87,90,90,0,0,0-19.74-8.4q-10.84-3.23-22.12-5.75t-22-5a125.78,125.78,0,0,1-19.43-6,48.42,48.42,0,0,1-14.33-8.68,20.2,20.2,0,0,1-6.62-12.83,19.33,19.33,0,0,1,1.55-9.76A30.12,30.12,0,0,1,56,132.92a56.88,56.88,0,0,1,13.22-9.19,82.25,82.25,0,0,1,19.42-6.89,119.32,119.32,0,0,1,19-3,53.12,53.12,0,0,1,15.25.88,23.13,23.13,0,0,1,10.53,5.13,15,15,0,0,1,4.8,9.66,26.35,26.35,0,0,1-.57,8.87,55.5,55.5,0,0,1-3.84,11.06,53.56,53.56,0,0,0-4,10.93,23.26,23.26,0,0,0-.6,7.64c.35,2.75,1.41,4.62,3.18,5.59a8.55,8.55,0,0,0,6.41.52c3.35-.86,6.94-3,10.78-6.51a45.9,45.9,0,0,0,10.07-14.13,71.42,71.42,0,0,0,5.95-17,45.21,45.21,0,0,0,.68-14.57,33.57,33.57,0,0,0-8.58-19.12A46.62,46.62,0,0,0,140,91a72,72,0,0,0-23.59-4.48,96.88,96.88,0,0,0-26,2.76C76.65,92.62,64.84,96.89,55,102.21S37.08,113.3,30.85,119.63s-10.66,12.92-13.27,19.86a41.59,41.59,0,0,0-2.69,20.17,35,35,0,0,0,7.24,17.85,53.49,53.49,0,0,0,14.79,12.62,100.44,100.44,0,0,0,19.8,8.81q10.94,3.6,22.19,6.44t22.09,5.5a126.21,126.21,0,0,1,19.54,6.39,47.61,47.61,0,0,1,14.39,9.16,22.4,22.4,0,0,1,6.74,13.82,28.22,28.22,0,0,1-3.36,17.41,52.85,52.85,0,0,1-12.61,15.09,79.43,79.43,0,0,1-18.76,11.56,98.74,98.74,0,0,1-21.69,6.88,81.42,81.42,0,0,1-18.31,1.47,50.48,50.48,0,0,1-16.17-3.08,30.59,30.59,0,0,1-12-8.06,24,24,0,0,1-5.85-13.46,44.63,44.63,0,0,1-.38-6.94c.06-2.16.16-4.13.31-5.94s.28-3.47.42-5a19.52,19.52,0,0,0,0-4.27c-.37-2.87-1.54-4.84-3.54-5.91a11.15,11.15,0,0,0-7.06-1,23.45,23.45,0,0,0-8.28,3.19,28.27,28.27,0,0,0-7.75,6.89,31.49,31.49,0,0,0-5.31,10.25,30.8,30.8,0,0,0-1,13.37Q2.14,287.1,10.58,297A57.55,57.55,0,0,0,31.65,312.3a85.28,85.28,0,0,0,28.07,6.6A121.18,121.18,0,0,0,91,317a131.46,131.46,0,0,0,22.16-6.28,127.51,127.51,0,0,0,20.52-9.92,103.75,103.75,0,0,0,17.63-13.29,81.79,81.79,0,0,0,13.45-16.19A66,66,0,0,0,170,260.86c.55,1.29,1.1,2.56,1.7,3.77q4.42,8.83,10.38,13.64A16.26,16.26,0,0,0,195,282.1a50.18,50.18,0,0,0,9.67-2.49,103.46,103.46,0,0,0,10.6-4.49q5.43-2.65,10.79-5.84,4.54-2.7,8.84-5.42a24.39,24.39,0,0,0,2.35,2.31,25.66,25.66,0,0,0,10.28,5.26,29.74,29.74,0,0,0,12,.59,39.26,39.26,0,0,0,14.69-5.76,85.7,85.7,0,0,0,14.65-11.59l-3.06,15.15q-8.24,7.95-14.19,14.65t-15.13,17.59a114.93,114.93,0,0,0-8.79,11.52q-4.22,6.38-6.2,9.72t-6.87,12q-8.72,15.38-7.88,28A23.85,23.85,0,0,0,230,374.59a18.48,18.48,0,0,0,7.47,6.94,30.59,30.59,0,0,0,10.16,2.94,51.19,51.19,0,0,0,27.1-4.71,47.26,47.26,0,0,0,11.74-8,62.34,62.34,0,0,0,9-10.83,76.24,76.24,0,0,0,6.61-12.22,105.41,105.41,0,0,0,4.43-13.08,109.41,109.41,0,0,0,2.69-12.43q.8-5.39,1.66-11.34c.14-1.63.49-4,1-7.06,1.29-10.66,2.4-18,3.33-22A15.93,15.93,0,0,1,319,275.1c1.21-.74,2.43-1.46,3.63-2.22,14.89-9.31,27.4-20.42,41.18-31.24,14.78-11.6,22.39-25,30.66-41.5a107,107,0,0,0,9.17-27.08q2.7-14.17,5.59-29.36c1.85-.34,4.9-1,9.2-1.89L433,138.73l16.66-3.53,2.81-.6a79.19,79.19,0,0,0-7,15.15,91.35,91.35,0,0,0-4.24,29A76.61,76.61,0,0,0,443.56,198a44.84,44.84,0,0,0,7.52,16.09,32,32,0,0,0,13.18,10.24c5.37,2.29,11.81,2.82,19.38,1.58a47.27,47.27,0,0,0,14.79-5,61.64,61.64,0,0,0,12.78-9.15,66.57,66.57,0,0,0,6.05-6.39c21.15-5.76,39.25-17.18,52.38-34.47l4.85-6.4,14,15.6c3.86,3.73,8.64,8.17,13.73,12.56-30.39,19-66,42.36-93.69,60.26-30.46,18.74-78,53.44-114.77,39.76,0,0-21.38-7.9-4.4-26.55,0,0-21.73-13.74-48.89,12.24-28.22,28.72-11.29,69.4,19.55,76.91,19,4.61,40.26-3.42,60.07-10.23,39.49-17.23,58.43-25.42,133.15-78,4.1-3,8.3-5.91,12.47-8.78,22.18-15.29,42.36-31,63.25-46,7.47,4.5,24.79,13.41,51.08,17.81,15.44,2.58,37.75.41,48.87-11.84a50.9,50.9,0,0,0,8.91-14.35C740.53,197.47,742.25,189.18,741.23,182.35Zm-542-24.83q3.45-16.86,3.46-16.87l5.67-18.53Q214,103.58,218.1,95a79.27,79.27,0,0,1,8.17-13.85q4.08-5.33,7.62-6c.65-.12,1,.64,1.16,2.28s.18,3.65.18,6a128.42,128.42,0,0,1-5.42,24.91Q225.55,122,219.74,135.9T207.41,163q-6.51,13.2-12.32,23.79A202.57,202.57,0,0,1,199.22,157.52ZM284.69,307q-.88,6.19-1.5,10.6a48.73,48.73,0,0,1-1.84,8.12q-2.18,6.87-3.59,11c-.93,2.76-2,5.58-3.2,8.47a45.42,45.42,0,0,1-3.4,6.78,29.93,29.93,0,0,1-3.67,4.64,14.08,14.08,0,0,1-4.55,3.24,21.07,21.07,0,0,1-5.55,1.49q-8.5,1.17-4.07-11a165.67,165.67,0,0,1,14.35-29.14q9-14.61,18.14-22.08C285.64,300.23,285.27,302.86,284.69,307Zm224.6-140.35a78.83,78.83,0,0,1-5,16.7,50.46,50.46,0,0,1-7.2,12q-4.11,5-8.48,5.7a15.93,15.93,0,0,1-8.62-.63,12.92,12.92,0,0,1-5.79-4.51,21,21,0,0,1-3.22-7.5,42.49,42.49,0,0,1-1-9.67,81.26,81.26,0,0,1,2.06-18.92,78.88,78.88,0,0,1,5.66-16,52.21,52.21,0,0,1,8.36-12.63q4.77-5.2,10-6.11a10,10,0,0,1,6.83,1,12.42,12.42,0,0,1,4.62,5,27.6,27.6,0,0,1,2.71,8.13,57.55,57.55,0,0,1,.89,10.56A89.69,89.69,0,0,1,509.29,166.64Zm206.53,25.81c-3.38,5.21-9.47,8.5-15.08,10.85-14.86,6.21-33,.34-47.92-7.54,4.41-2.88,8.88-5.71,13.45-8.48,9.67-5.85,21.87-14.9,33.81-14A29.84,29.84,0,0,1,712,176.72C718,180.15,719.57,186.68,715.82,192.45Z"/><path class="cls-1" d="M659,78.34h-2.76V67.46h-4V65.13H663v2.33h-4Z"/><path class="cls-1" d="M677.29,78.34h-2.58v-11h0l-2.47,11h-2.7l-2.41-11h0v11h-2.57V65.13h4l2.39,10.41h0l2.36-10.41h4Z"/></svg>